HIERARCHY
ROOT Hips
{
	OFFSET 0.000000 0.000000 0.000000
	CHANNELS 6 Xposition Yposition Zposition Zrotation Yrotation Xrotation 
	JOINT LHipJoint
	{
		OFFSET 0.000000 0.000000 0.000000
		CHANNELS 3 Zrotation Yrotation Xrotation
		JOINT LeftUpLeg
		{
			OFFSET 1.363060 -1.794630 0.839290
			CHANNELS 3 Zrotation Yrotation Xrotation
			JOINT LeftLeg
			{
				OFFSET 2.448110 -6.726130 0.000000
				CHANNELS 3 Zrotation Yrotation Xrotation
				JOINT LeftFoot
				{
					OFFSET 2.562200 -7.039590 0.000000
					CHANNELS 3 Zrotation Yrotation Xrotation
					JOINT LeftToeBase
					{
						OFFSET 0.157640 -0.433110 2.322550
						CHANNELS 3 Zrotation Yrotation Xrotation
						End Site
						{
							OFFSET 0.000000 0.000000 0.000000
						}
					}
				}
			}
		}
	}
	JOINT RHipJoint
	{
		OFFSET 0.000000 0.000000 0.000000
		CHANNELS 3 Zrotation Yrotation Xrotation
		JOINT RightUpLeg
		{
			OFFSET -1.305520 -1.794630 0.839290
			CHANNELS 3 Zrotation Yrotation Xrotation
			JOINT RightLeg
			{
				OFFSET -2.542530 -6.985550 0.000000
				CHANNELS 3 Zrotation Yrotation Xrotation
				JOINT RightFoot
				{
					OFFSET -2.568260 -7.056230 0.000000
					CHANNELS 3 Zrotation Yrotation Xrotation
					JOINT RightToeBase
					{
						OFFSET -0.164730 -0.452590 2.363150
						CHANNELS 3 Zrotation Yrotation Xrotation
						End Site
						{
							OFFSET 0.000000 0.000000 0.000000
						}
					}
				}
			}
		}
	}
	JOINT LowerBack
	{
		OFFSET 0.000000 0.000000 0.000000
		CHANNELS 3 Zrotation Yrotation Xrotation
		JOINT Spine
		{
			OFFSET 0.028270 2.035590 -0.193380
			CHANNELS 3 Zrotation Yrotation Xrotation
			JOINT Spine1
			{
				OFFSET 0.056720 2.048850 -0.042750
				CHANNELS 3 Zrotation Yrotation Xrotation
				JOINT Neck
				{
					OFFSET 0.000000 0.000000 0.000000
					CHANNELS 3 Zrotation Yrotation Xrotation
					JOINT Neck1
					{
						OFFSET -0.054170 1.746240 0.172020
						CHANNELS 3 Zrotation Yrotation Xrotation
						JOINT Head
						{
							OFFSET 0.104070 1.761360 -0.123970
							CHANNELS 3 Zrotation Yrotation Xrotation
							End Site
							{
								OFFSET 0.000000 0.000000 0.000000
							}
						}
					}
				}
				JOINT LeftShoulder
				{
					OFFSET 0.000000 0.000000 0.000000
					CHANNELS 3 Zrotation Yrotation Xrotation
					JOINT LeftArm
					{
						OFFSET 3.362410 1.200890 -0.311210
						CHANNELS 3 Zrotation Yrotation Xrotation
						JOINT LeftForeArm
						{
							OFFSET 4.983000 -0.000000 -0.000000
							CHANNELS 3 Zrotation Yrotation Xrotation
							JOINT LeftHand
							{
								OFFSET 3.483560 -0.000000 -0.000000
								CHANNELS 3 Zrotation Yrotation Xrotation
								JOINT LeftFingerBase
								{
									OFFSET 0.000000 0.000000 0.000000
									CHANNELS 3 Zrotation Yrotation Xrotation
									JOINT LeftHandIndex1
									{
										OFFSET 0.715260 -0.000000 -0.000000
										CHANNELS 3 Zrotation Yrotation Xrotation
										End Site
										{
											OFFSET 0.000000 0.000000 0.000000
										}
									}
								}
								JOINT LThumb
								{
									OFFSET 0.000000 0.000000 0.000000
									CHANNELS 3 Zrotation Yrotation Xrotation
									End Site
									{
										OFFSET 0.000000 0.000000 0.000000
									}
								}
							}
						}
					}
				}
				JOINT RightShoulder
				{
					OFFSET 0.000000 0.000000 0.000000
					CHANNELS 3 Zrotation Yrotation Xrotation
					JOINT RightArm
					{
						OFFSET -3.136600 1.374050 -0.404650
						CHANNELS 3 Zrotation Yrotation Xrotation
						JOINT RightForeArm
						{
							OFFSET -5.241900 -0.000000 -0.000000
							CHANNELS 3 Zrotation Yrotation Xrotation
							JOINT RightHand
							{
								OFFSET -3.444170 -0.000000 -0.000000
								CHANNELS 3 Zrotation Yrotation Xrotation
								JOINT RightFingerBase
								{
									OFFSET 0.000000 0.000000 0.000000
									CHANNELS 3 Zrotation Yrotation Xrotation
									JOINT RightHandIndex1
									{
										OFFSET -0.622530 -0.000000 -0.000000
										CHANNELS 3 Zrotation Yrotation Xrotation
										End Site
										{
											OFFSET 0.000000 0.000000 0.000000
										}
									}
								}
								JOINT RThumb
								{
									OFFSET 0.000000 0.000000 0.000000
									CHANNELS 3 Zrotation Yrotation Xrotation
									End Site
									{
										OFFSET 0.000000 0.000000 0.000000
									}
								}
							}
						}
					}
				}
			}
		}
	}
}
MOTION
Frames: 7
Frame Time: 0.033333
-1.683043 17.077985 23.788459 -0.883366 -11.573350 12.682756 -7.771786 9.944653 7.517014 -12.722072 -12.680047 -13.027913 16.021477 -18.669181 -34.561547 1.456965 11.890613 69.086545 0.000000 0.000000 0.000000 9.088846 -14.227549 -2.535735 17.512042 19.796676 -17.711317 -12.549471 -12.471180 70.365861 10.967689 -4.489802 -16.687025 0.000000 0.000000 0.000000 -3.108036 3.107192 4.800121 -1.436293 2.217225 1.529473 6.518776 2.019289 -6.538040 5.373576 0.871867 -7.249817 3.136132 0.851582 -9.303584 0.000000 0.000000 0.000000 -2.762739 8.539333 18.130370 -81.177316 -4.465000 -21.176701 -145.655807 -75.489507 177.922426 14.855197 -11.029886 -1.090173 15.218051 -10.803580 0.000000 0.000000 0.000000 0.000000 0.000000 0.000000 0.000000 4.446857 -13.612466 5.201330 51.706564 7.135176 22.295687 23.917508 72.768858 0.316970 0.171155 8.783419 0.157614 0.165841 8.787606 0.000000 0.000000 0.000000 0.000000 0.000000 0.000000 0.000000 
-1.703059 17.099497 23.980481 -0.293477 -10.894263 12.119049 -6.002664 9.666630 6.314933 -15.946111 -12.061228 -10.565872 14.934253 -18.233737 -32.775281 1.354863 10.904314 64.670345 0.000000 0.000000 0.000000 8.365893 -12.921730 -2.840665 16.850138 18.078468 -16.055137 -11.510546 -13.836761 69.034855 10.883752 -4.992569 -15.878240 0.000000 0.000000 0.000000 -3.601273 2.914936 5.664243 -1.494925 1.975506 0.972662 6.242160 1.755419 -5.885404 5.519322 0.927158 -7.195989 3.459649 0.901403 -9.396026 0.000000 0.000000 0.000000 -2.122372 8.074394 18.220474 -81.619905 -4.314290 -20.130491 -145.782757 -76.479720 177.865639 15.551359 -11.773333 -1.122881 15.943332 -11.525793 0.000000 0.000000 0.000000 0.000000 0.000000 0.000000 0.000000 3.282035 -13.724759 4.999842 53.592959 7.731584 21.380781 26.455003 71.380424 0.293763 0.338880 8.539638 0.146112 0.333968 8.543615 0.000000 0.000000 0.000000 0.000000 0.000000 0.000000 0.000000 
-1.721613 17.123397 24.170306 0.239343 -10.212488 11.574723 -4.517714 9.406589 5.195694 -18.651197 -11.365196 -8.430048 13.775589 -17.718509 -30.813109 1.307365 9.957711 60.282818 0.000000 0.000000 0.000000 7.790218 -11.611302 -3.070053 16.047537 16.346828 -14.439725 -10.380044 -15.145240 67.565009 10.732314 -5.405538 -15.035735 0.000000 0.000000 0.000000 -4.013723 2.715607 6.441076 -1.502132 1.727110 0.571984 5.920832 1.504377 -5.402652 5.684597 0.971742 -7.145798 3.719331 0.939465 -9.461714 0.000000 0.000000 0.000000 -1.606295 7.682323 18.283444 -81.978532 -4.047395 -18.930378 -145.961673 -77.604408 177.814763 16.246014 -12.567955 -1.153236 16.670341 -12.296444 0.000000 0.000000 0.000000 0.000000 0.000000 0.000000 0.000000 2.180256 -13.897893 4.792205 55.331218 8.317020 20.417829 29.081431 69.885318 0.265849 0.482841 8.180028 0.132272 0.478342 8.183692 0.000000 0.000000 0.000000 0.000000 0.000000 0.000000 0.000000 
-1.737491 17.149167 24.357206 0.713213 -9.554378 11.085488 -3.329707 9.189285 4.191613 -20.835336 -10.666431 -6.677066 12.557456 -17.122473 -28.732164 1.295688 9.073011 56.017077 0.000000 0.000000 0.000000 7.374492 -10.320099 -3.217053 15.104794 14.649399 -12.915039 -9.177277 -16.364812 65.990782 10.522671 -5.725530 -14.170871 0.000000 0.000000 0.000000 -4.352220 2.481861 7.111992 -1.445007 1.453876 0.199715 5.537717 1.252406 -4.968317 5.839249 0.906328 -7.048164 3.592236 0.863433 -8.659178 0.000000 0.000000 0.000000 -1.217422 7.383300 18.320956 -82.254579 -3.676649 -17.630251 -146.171117 -78.871722 177.767531 16.944205 -13.411345 -1.182571 17.404855 -13.112528 0.000000 0.000000 0.000000 0.000000 0.000000 0.000000 0.000000 1.152366 -14.038935 4.601858 56.937566 8.915877 19.379359 31.714551 68.265155 0.232593 0.581211 7.691817 0.115764 0.577031 7.695061 0.000000 0.000000 0.000000 0.000000 0.000000 0.000000 0.000000 
-1.750696 17.176278 24.540487 1.129574 -8.934464 10.683177 -2.440619 9.027451 3.334329 -22.517118 -10.037148 -5.341513 11.317758 -16.455874 -26.581963 1.293561 8.245059 51.921841 0.000000 0.000000 0.000000 7.121653 -9.082972 -3.269608 14.028173 13.033312 -11.534716 -7.911576 -17.475676 64.348148 10.267240 -5.952416 -13.307182 0.000000 0.000000 0.000000 -4.620250 2.216585 7.648451 -1.334607 1.158681 -0.159187 5.095685 1.001526 -4.584097 5.977110 0.735347 -6.896044 3.096752 0.688002 -7.005910 0.000000 0.000000 0.000000 -0.956846 7.178401 18.335073 -82.446317 -3.199507 -16.226481 -146.423953 -80.292509 177.725292 17.639283 -14.304443 -1.210355 18.140669 -13.974678 0.000000 0.000000 0.000000 0.000000 0.000000 0.000000 0.000000 0.211067 -14.150004 4.425167 58.403344 9.532402 18.276266 34.321964 66.511982 0.194887 0.623095 7.061045 0.097031 0.619175 7.063793 0.000000 0.000000 0.000000 0.000000 0.000000 0.000000 0.000000 
-1.760611 17.204466 24.719773 1.633792 -8.431418 10.151125 -1.481664 8.742183 2.160670 -24.432865 -9.051150 -3.565070 10.247109 -15.689932 -24.586858 1.370333 7.722213 48.626409 0.000000 0.000000 0.000000 6.949464 -7.792136 -3.092275 12.561280 11.312373 -10.133308 -6.354369 -18.568686 62.391258 9.737342 -5.747746 -12.735801 0.000000 0.000000 0.000000 -4.960024 1.991525 8.226014 -1.230967 0.896269 -0.362798 4.605087 0.793577 -4.399637 6.171198 0.624980 -6.723787 2.789345 0.578282 -5.875128 0.000000 0.000000 0.000000 -0.780143 7.044570 18.337109 -82.552059 -2.625734 -14.628582 -146.824393 -81.880242 177.694245 18.312780 -15.265683 -1.233629 18.860024 -14.901103 0.000000 0.000000 0.000000 0.000000 0.000000 0.000000 0.000000 -0.732739 -14.393336 4.187599 59.808951 10.218632 16.872537 37.393434 64.111712 0.155877 0.652594 6.356070 0.077632 0.648931 6.358338 0.000000 0.000000 0.000000 0.000000 0.000000 0.000000 0.000000 
-1.766616 17.233321 24.895052 2.221897 -8.094190 9.510390 -0.472274 8.321289 0.668355 -26.504586 -7.685970 -1.382671 9.363541 -14.839866 -22.822206 1.515676 7.565669 46.269278 0.000000 0.000000 0.000000 6.890763 -6.480646 -2.640546 10.688714 9.553836 -8.753951 -4.493035 -19.588143 60.132132 8.959268 -5.130307 -12.460076 0.000000 0.000000 0.000000 -5.380081 1.817196 8.819556 -1.139951 0.677869 -0.418160 4.070575 0.640602 -4.428798 6.435063 0.572757 -6.515437 2.659629 0.523324 -5.254676 0.000000 0.000000 0.000000 -0.694370 6.994924 18.332476 -82.566161 -1.944900 -12.846511 -147.396494 -83.642403 177.677312 18.955125 -16.301462 -1.251112 19.553979 -15.897957 0.000000 0.000000 0.000000 0.000000 0.000000 0.000000 0.000000 -1.678107 -14.779749 3.869939 61.120468 11.010213 15.062598 40.884290 60.820068 0.114776 0.643739 5.544468 0.057175 0.640334 5.546261 0.000000 0.000000 0.000000 0.000000 0.000000 0.000000 0.000000 
